{"title":"A.Special.Day.[Un.Giorno.Speciale].2012.DVDRip.XviD.AC3.HORiZON-","uid":8159815,"size":1220608495,"categoryP":"video","categoryS":"movies","magnet":"?xt=urn:btih:78b3d5f2478cc3d655d8d47908f834f49d2a0685&amp;dn=A.Special.Day.%5BUn.Giorno.Speciale%5D.2012.DVDRip.XviD.AC3.HORiZON-&amp;tr=udp%3A%2F%2Ftracker.openbittorrent.com%3A80&amp;tr=udp%3A%2F%2Fopen.demonii.com%3A1337&amp;tr=udp%3A%2F%2Ftracker.coppersurfer.tk%3A6969&amp;tr=udp%3A%2F%2Fexodus.desync.com%3A6969","seeders":5,"leechers":3,"uploader":"lletaif","files":3,"time":1361229858,"description":"Title:\nUn Giorno Speciale Aka A Special Day\n\nCountry:\nItaly/2012\n\nLanguage:\nItalian\n\nSubtitle:\nEnglish\n\nDirector:\nFrancesca Comencini\n\nWriters:\nClaudio Bigagli (novel), Francesca Comencini (story)\n\nStars:\nFilippo Scicchitano, Giulia Valentini, Roberto Infascelli\n\nSynopsis:\nGina and Marco are two living in Rome suburbs. The two meet in a very special day: their first day at work. They have a future that awaits them and really seems at hand. Gina is about to realize her dream of becoming an actress, while Marco for the first time has found an opportunity that allows him to start dreaming: a job in a car rental company as a driver. They are enabled to know each other since his first duty is to drive Gina to an appointment, and given a delay, they have to share the whole day. This journey will take them from the periphery to the center of the city, will serve both to compare their experiences and think about a future that has already begun...\n\nTrivia:\nOficial Selection for Venice Film Festival 2012\n\nImdb: &lt;a href=&quot;\nhttp://www.imdb.com/title/tt2299792&quot; rel=&quot;nofollow&quot; target=&quot;_NEW&quot;&gt;\nhttp://www.imdb.com/title/tt2299792&lt;/a&gt;\n\nTrailer: &lt;a href=&quot;\nhttp://www.movieplayer.it/video/trailer-un-giorno-speciale_11491/&quot; rel=&quot;nofollow&quot; target=&quot;_NEW&quot;&gt;\nhttp://www.movieplayer.it/video/trailer-un-giorno-speciale_11491/&lt;/a&gt;\n\nMedia Info:\n\nGeneral\nComplete name                            : A.Special.Day.[Un.Giorno.Speciale].2012.DVDRip.XviD.AC3.HORiZON-ArtSubs\nFormat                                   : AVI\nFormat/Info                              : Audio Video Interleave\nFile size                                : 1.13 GiB\nDuration                                 : 1h 19mn\nOverall bit rate                         : 2 040 Kbps\nWriting application                      : VirtualDubMod 1.5.4.1 (build 2178/release)\nWriting library                          : VirtualDubMod build 2178/release\n\nVideo\nID                                       : 0\nFormat                                   : MPEG-4 Visual\nFormat profile                           : Advanced Simple@L5\nFormat settings, BVOP                    : No\nFormat settings, QPel                    : No\nFormat settings, GMC                     : No warppoints\nFormat settings, Matrix                  : Custom\nCodec ID                                 : XVID\nCodec ID/Hint                            : XviD\nDuration                                 : 1h 19mn\nBit rate                                 : 1 646 Kbps\nWidth                                    : 720 pixels\nHeight                                   : 304 pixels\nDisplay aspect ratio                     : 2.35:1\nFrame rate                               : 25.000 fps\nColor space                              : YUV\nChroma subsampling                       : 4:2:0\nBit depth                                : 8 bits\nScan type                                : Progressive\nCompression mode                         : Lossy\nBits/(Pixel*Frame)                       : 0.301\nStream size                              : 935 MiB (81%)\nWriting library                          : XviD 1.2.1 (UTC 2008-12-04)\n\nAudio\nID                                       : 1\nFormat                                   : AC-3\nFormat/Info                              : Audio Coding 3\nMode extension                           : CM (complete main)\nFormat settings, Endianness              : Big\nCodec ID                                 : 2000\nDuration                                 : 1h 19mn\nBit rate mode                            : Constant\nBit rate                                 : 384 Kbps\nChannel(s)                               : 6 channels\nChannel positions                        : Front: L C R, Side: L R, LFE\nSampling rate                            : 48.0 KHz\nBit depth                                : 16 bits\nCompression mode                         : Lossy\nDelay relative to video                  : 350ms\nStream size                              : 218 MiB (19%)\nAlignment                                : Split accross interleaves\nInterleave, duration                     : 40 ms (1.00 video frame)\nInterleave, preload duration             : 500 ms\nLanguage                                 : Italiano\n\n","torrent":{"xt":"urn:btih:78b3d5f2478cc3d655d8d47908f834f49d2a0685","amp;dn":"A.Special.Day.%5BUn.Giorno.Speciale%5D.2012.DVDRip.XviD.AC3.HORiZON-","amp;tr":["udp%3A%2F%2Ftracker.openbittorrent.com%3A80","udp%3A%2F%2Fopen.demonii.com%3A1337","udp%3A%2F%2Ftracker.coppersurfer.tk%3A6969","udp%3A%2F%2Fexodus.desync.com%3A6969"],"infoHash":"78b3d5f2478cc3d655d8d47908f834f49d2a0685","infoHashBuffer":{"type":"Buffer","data":[120,179,213,242,71,140,195,214,85,216,212,121,8,248,52,244,157,42,6,133]},"announce":[],"urlList":[]}}